<svg width="460" height="460" viewBox="0 0 460 460" fill="none" xmlns="http://www.w3.org/2000/svg">
<rect width="460" height="460" fill="white"/>
<path d="M199.823 13.8193C209.726 6.45776 227.29 3.75176 239.395 5.52526C248.055 6.74776 256.335 9.86625 263.65 14.6583C271.615 19.9348 279.155 28.0252 285.99 34.8642C295.98 44.8332 305.885 54.8878 315.705 65.0268C320.05 69.4298 335.26 83.3062 338.03 87.6377C343.335 92.1277 349.28 98.7253 353.96 103.899C356.645 106.478 358.825 108.574 361.28 111.366C367.955 117.555 380.675 130.268 386.77 137.018C398.66 148.514 410.67 161.244 422.475 172.888C427.4 177.746 443.375 193.547 446.275 198.406C452.395 205.852 455.41 216.801 455.355 226.337C455.32 238.102 450.515 249.352 442.035 257.512C433.485 265.662 422.005 270.027 410.2 269.607C397.33 269.217 386.22 263.712 377.325 254.582C355.735 232.412 332.81 210.809 311.68 188.24C308.565 185.705 302.995 179.765 299.89 176.627C293.815 170.554 287.79 164.428 281.82 158.249C274.945 151.815 267.875 143.981 261.1 137.323C254.835 131.165 252.645 127.546 245.07 122.713C233.33 117.887 225.78 118.675 214.615 124.326C208.938 128.76 202.4 135.741 197.171 140.993L171.772 166.429C169.991 168.208 160.503 177.796 159.001 178.75C156.137 179.632 154.243 182.652 151.236 184.831C153.437 181.985 156.346 178.009 158.878 175.605L161.685 172.94C161.961 170.046 126.954 137.42 122.544 132.256C116.796 125.525 107.108 120.386 102.478 111.376C102.99 109.643 104.508 108.352 105.381 106.174C106.291 104.757 112.61 98.5258 114.059 97.2053C125.948 86.3753 137.163 72.4023 149.154 61.8893C158.479 50.6573 172.205 39.5888 182.127 28.5448C186.352 23.8423 194.266 16.5763 199.823 13.8193Z" fill="#08825A"/>
<path d="M291.97 94.7058L293.17 95.5303C295.425 97.9718 307.12 110.72 309.475 112.3C312.475 113.328 313.15 115.887 315.135 115.765C320.97 115.407 332.915 104.709 336.8 100.792L336.775 100.086C335.545 99.5858 334.6 99.1963 333.4 98.6098C334.375 98.2103 339.12 99.8808 340.62 100.327C343.775 101.807 360.225 111.362 361.28 111.366C367.955 117.555 380.675 130.268 386.77 137.018C398.66 148.514 410.67 161.244 422.475 172.888C427.4 177.746 443.375 193.547 446.275 198.406C452.395 205.852 455.41 216.801 455.355 226.337C455.32 238.102 450.515 249.352 442.035 257.512C433.485 265.662 422.005 270.027 410.2 269.607C397.33 269.217 386.22 263.712 377.325 254.582C355.735 232.412 332.81 210.809 311.68 188.24C308.565 185.705 302.995 179.765 299.89 176.627C293.815 170.554 287.79 164.428 281.82 158.249C274.945 151.815 267.875 143.981 261.1 137.323C254.835 131.165 252.645 127.546 245.07 122.713C245.655 118.743 250.98 115.091 254.045 112.737C265.61 103.849 277.745 97.9563 291.97 94.7058Z" fill="url(#paint0_linear_1_38)"/>
<path d="M291.97 94.7058L293.17 95.5303C295.425 97.9718 307.12 110.72 309.475 112.3C313.775 116.662 321.68 124.375 325.39 128.937C335.345 138.779 346.37 150.088 356.73 159.283C356.9 160.801 357.91 161.966 359.495 162.156L359.825 162.534C361.67 164.611 363.875 165.958 365.14 167.697C362.675 171.787 353.61 174.345 349.07 177.836C343.58 182.059 337.585 186.473 332.055 190.639C329.13 192.842 326.915 195.94 323.615 198.376C321.035 197.3 315.675 190.404 312.34 187.951L311.68 188.24C308.565 185.705 302.995 179.765 299.89 176.627C293.815 170.554 287.79 164.428 281.82 158.249C274.945 151.815 267.875 143.981 261.1 137.323C254.835 131.165 252.645 127.546 245.07 122.713C245.655 118.743 250.98 115.091 254.045 112.737C265.61 103.849 277.745 97.9563 291.97 94.7058Z" fill="#3A87F7"/>
<path d="M291.97 94.7058L293.17 95.5303C295.425 97.9718 307.12 110.72 309.475 112.3C313.775 116.662 321.68 124.375 325.39 128.937C322.41 127.777 314.88 119.613 312.59 116.927C300.28 124.727 288.295 133.862 275.395 141.048C273.17 142.287 270.775 142.083 269.97 144.666C273.105 149.472 282.195 153.448 281.82 158.249C274.945 151.815 267.875 143.981 261.1 137.323C254.835 131.165 252.645 127.546 245.07 122.713C245.655 118.743 250.98 115.091 254.045 112.737C265.61 103.849 277.745 97.9563 291.97 94.7058Z" fill="#613EE8"/>
<path d="M309.475 112.3C312.475 113.328 313.15 115.887 315.135 115.765C320.97 115.407 332.915 104.709 336.8 100.792L336.775 100.086C335.545 99.5858 334.6 99.1963 333.4 98.6098C334.375 98.2103 339.12 99.8808 340.62 100.327C343.775 101.807 360.225 111.362 361.28 111.366C367.955 117.555 380.675 130.268 386.77 137.018C398.66 148.514 410.67 161.244 422.475 172.888C427.4 177.746 443.375 193.547 446.275 198.406C443.38 197.961 435.045 191.314 430.355 189.928C422.44 187.589 415.265 187.776 407.23 186.144C385.625 181.752 376.065 172.888 359.495 162.156C357.91 161.966 356.9 160.801 356.73 159.283C346.37 150.088 335.345 138.779 325.39 128.937C321.68 124.375 313.775 116.662 309.475 112.3Z" fill="#1892C9"/>
<path d="M309.475 112.3C312.475 113.328 313.15 115.887 315.135 115.765C320.97 115.407 332.915 104.709 336.8 100.792L336.775 100.086C335.545 99.5858 334.6 99.1963 333.4 98.6098C334.375 98.2103 339.12 99.8808 340.62 100.327C343.775 101.807 360.225 111.362 361.28 111.366C367.955 117.555 380.675 130.268 386.77 137.018C383.405 135.776 377.695 129.044 374.83 126.183C364.805 135.905 357.825 141.786 345.23 147.583C347.395 149.729 356.565 157.559 356.73 159.283C346.37 150.088 335.345 138.779 325.39 128.937C321.68 124.375 313.775 116.662 309.475 112.3Z" fill="url(#paint1_linear_1_38)"/>
<path d="M149.154 61.8893L150.071 62.1543C151.975 60.5748 152.266 59.6158 154.233 59.4738C159.74 62.7238 162.629 69.9793 166.598 74.7473C168.339 76.8398 174.495 80.5803 175.511 82.3408C179.335 88.9668 180.296 91.8023 187.359 95.3213C188.538 95.9088 192.694 103.019 194.162 104.234C199.225 109.444 206.406 113.746 209.873 120.233C210.282 120.997 209.009 122.646 208.534 123.235C211.412 122.444 219.17 114.375 221.63 111.896C225.465 110.821 230.25 104.229 232.105 103.936C235.1 107.74 223.825 111.716 222.025 116.893C220.52 118.336 215.316 122.945 214.615 124.326C208.938 128.76 202.4 135.741 197.171 140.993L171.772 166.429C169.991 168.208 160.503 177.796 159.001 178.75C156.137 179.632 154.243 182.652 151.236 184.831C153.437 181.985 156.346 178.009 158.878 175.605L161.685 172.94C161.961 170.046 126.954 137.42 122.544 132.256C116.796 125.525 107.108 120.386 102.478 111.376C102.99 109.643 104.508 108.352 105.381 106.174C106.291 104.757 112.61 98.5258 114.059 97.2053C125.948 86.3753 137.163 72.4023 149.154 61.8893Z" fill="url(#paint2_linear_1_38)"/>
<path d="M149.154 61.8893C158.479 50.6573 172.205 39.5888 182.127 28.5448C186.352 23.8423 194.266 16.5763 199.823 13.8193C198.64 17.1913 189.559 19.9533 189.512 23.8628C198.341 33.0233 207.031 42.3163 215.58 51.7388C218.72 55.2353 221.94 59.4078 224.6 62.5563C226.435 64.7308 233.495 68.4513 236.895 71.8008C241.63 76.4648 246.38 83.7343 250.665 87.7743C252.895 86.7168 255.01 85.7198 257.29 84.7543L257.81 85.2023C245.99 91.1833 230.515 101.782 221.63 111.896C219.17 114.375 211.412 122.444 208.534 123.235C209.009 122.646 210.282 120.997 209.873 120.233C206.406 113.746 199.225 109.444 194.162 104.234C192.694 103.019 188.538 95.9088 187.359 95.3213C180.296 91.8023 179.335 88.9668 175.511 82.3408C174.495 80.5803 168.339 76.8398 166.598 74.7473C162.629 69.9793 159.74 62.7238 154.233 59.4738C152.266 59.6158 151.975 60.5748 150.071 62.1543L149.154 61.8893Z" fill="url(#paint3_linear_1_38)"/>
<path d="M281.795 83.2742C302.595 79.3092 324.525 84.2112 341.85 96.1572C345.06 98.3687 350.84 103.365 353.96 103.899C356.645 106.478 358.825 108.574 361.28 111.366C360.225 111.362 343.775 101.807 340.62 100.327C339.12 99.8807 334.375 98.2102 333.4 98.6097C334.6 99.1962 335.545 99.5857 336.775 100.086L336.8 100.792C332.915 104.709 320.97 115.407 315.135 115.765C313.15 115.887 312.475 113.328 309.475 112.3C307.12 110.72 295.425 97.9717 293.17 95.5302L291.97 94.7057C288.845 91.4212 284.365 86.8557 281.795 83.2742Z" fill="#3C0B64"/>
<path d="M293.17 95.5302C304.405 92.5887 331.4 93.2782 340.62 100.327C339.12 99.8807 334.375 98.2102 333.4 98.6097C334.6 99.1962 335.545 99.5857 336.775 100.086L336.8 100.792C332.915 104.709 320.97 115.407 315.135 115.765C313.15 115.887 312.475 113.328 309.475 112.3C307.12 110.72 295.425 97.9717 293.17 95.5302Z" fill="#601694"/>
<path d="M222.025 116.893C241.595 100.6 254.755 87.9938 281.795 83.2743C284.365 86.8558 288.845 91.4213 291.97 94.7058C277.745 97.9563 265.61 103.849 254.045 112.737C250.98 115.091 245.655 118.743 245.07 122.713C233.33 117.887 225.78 118.675 214.615 124.326C215.316 122.945 220.52 118.336 222.025 116.893Z" fill="#252A9D"/>
<path d="M257.81 85.2023C281.85 76.4103 300.45 73.1883 325.03 84.4578C330.53 86.9783 336.88 89.7108 341.165 93.9343C342.425 95.1793 346.215 98.6128 347.765 98.8818C345.165 95.8768 338.72 90.3793 338.03 87.6378C343.335 92.1278 349.28 98.7253 353.96 103.899C350.84 103.365 345.06 98.3688 341.85 96.1573C324.525 84.2113 302.595 79.3093 281.795 83.2743C254.755 87.9938 241.595 100.6 222.025 116.893C223.825 111.716 235.1 107.74 232.105 103.936C230.25 104.229 225.465 110.821 221.63 111.896C230.515 101.782 245.99 91.1833 257.81 85.2023Z" fill="#30AB97"/>
<path d="M191.065 200.95C201.947 190.069 216.259 184.588 231.6 184.637C241.72 184.655 251.64 187.429 260.3 192.659C268.36 197.627 275.71 205.603 282.33 212.412C303.57 234.262 325.425 255.472 346.845 277.137C349.235 279.552 352.575 282.847 354.69 285.492C363.69 294.362 372.745 303.227 381.685 312.152C383.47 313.937 389.96 320.322 391.01 321.737C398.75 328.752 409.66 340.347 417.18 347.752C422.975 353.467 442.695 372.702 445.86 378.412C447.37 380.562 448.13 381.782 449.37 384.092C455.25 394.807 457.045 406.882 453.63 418.682C450.395 429.822 442.88 439.222 432.735 444.837C415.055 454.462 390.79 450.302 377.925 434.657C375.58 433.267 363.325 420.257 360.225 417.137L336.76 393.492C332.15 388.877 326.175 383.227 321.9 378.442C318.665 375.807 311.125 367.752 307.7 364.382C294.52 351.312 281.47 338.117 268.54 324.797C261.33 317.472 253.34 307.592 244.47 303.127C234.485 299.467 226.96 299.072 217.154 303.657C215.551 304.402 213.98 305.222 212.447 306.107L211.767 305.602L211.263 305.147L211.25 304.307C210.511 303.357 209.043 303.342 207.525 302.982L206.468 303.262C206.729 301.952 206.79 301.972 206.6 300.672C201.799 297.612 197.92 294.557 193.795 290.667C178.401 276.137 161.6 263.507 147.465 247.682C147.36 246.087 148.372 244.802 149.185 243.062C150.946 240.727 162.441 229.252 165.302 226.527C173.369 218.841 182.953 207.967 191.065 200.95Z" fill="url(#paint4_linear_1_38)"/>
<path d="M191.065 200.95C201.947 190.069 216.259 184.588 231.6 184.637C241.72 184.655 251.64 187.429 260.3 192.659C268.36 197.627 275.71 205.603 282.33 212.412C303.57 234.262 325.425 255.472 346.845 277.137C349.235 279.552 352.575 282.847 354.69 285.492L353.585 285.972C347.65 285.727 337.88 273.597 330.47 272.657C329.61 273.832 328.985 274.482 328.005 275.527L328.045 276.287L329.69 277.072L329.29 277.512C328.065 277.602 326.37 277.197 325.195 276.692C321.735 275.207 297.275 274.557 295.015 275.862L295.66 277.757L292.165 274.427C281.4 277.602 269.98 282.112 260.71 288.482C256.105 291.647 246.255 297.612 244.47 303.127C234.485 299.467 226.96 299.072 217.154 303.657C215.551 304.402 213.98 305.222 212.447 306.107L211.767 305.602L211.263 305.147L211.25 304.307C210.511 303.357 209.043 303.342 207.525 302.982L206.468 303.262C206.729 301.952 206.79 301.972 206.6 300.672C201.799 297.612 197.92 294.557 193.795 290.667C178.401 276.137 161.6 263.507 147.465 247.682C147.36 246.087 148.372 244.802 149.185 243.062C150.946 240.727 162.441 229.252 165.302 226.527C173.369 218.841 182.953 207.967 191.065 200.95Z" fill="url(#paint5_linear_1_38)"/>
<path d="M191.065 200.95C192.104 200.598 192.909 200.339 193.926 199.905C196.308 202.218 201.244 208.333 203.479 210.943C207.621 215.782 219.33 223.722 221.645 228.297C224.595 234.127 258.715 261.382 259.5 264.122C257.4 266.232 254.99 265.462 254.02 267.292C235.71 278.392 222.72 287.447 207.525 302.982L206.468 303.262C206.729 301.952 206.79 301.972 206.6 300.672C201.799 297.612 197.92 294.557 193.795 290.667C178.401 276.137 161.6 263.507 147.465 247.682C147.36 246.087 148.372 244.802 149.185 243.062C150.946 240.727 162.441 229.252 165.302 226.527C173.369 218.841 182.953 207.967 191.065 200.95Z" fill="url(#paint6_linear_1_38)"/>
<path d="M254.02 267.292C255.135 267.242 261.605 264.917 263.05 264.282C271.065 260.762 283.83 258.472 292.675 259.502L291.57 262.137C290.775 262.472 290.26 262.707 289.48 263.107L288.775 263.477C313.755 262.387 334.325 269.792 353.585 285.972C347.65 285.727 337.88 273.597 330.47 272.657C329.61 273.832 328.985 274.482 328.005 275.527L328.045 276.287L329.69 277.072L329.29 277.512C328.065 277.602 326.37 277.197 325.195 276.692C321.735 275.207 297.275 274.557 295.015 275.862L295.66 277.757L292.165 274.427C281.4 277.602 269.98 282.112 260.71 288.482C256.105 291.647 246.255 297.612 244.47 303.127C234.485 299.467 226.96 299.072 217.154 303.657C215.551 304.402 213.98 305.222 212.447 306.107L211.767 305.602L211.263 305.147L211.25 304.307C210.511 303.357 209.043 303.342 207.525 302.982C222.72 287.447 235.71 278.392 254.02 267.292Z" fill="#3C0B64"/>
<path d="M254.02 267.292C255.135 267.242 261.605 264.917 263.05 264.282C271.065 260.762 283.83 258.472 292.675 259.502L291.57 262.137C290.775 262.472 290.26 262.707 289.48 263.107L288.775 263.477C286.925 263.712 284.995 263.922 283.16 264.202C260.515 268.302 244.73 278.052 227.125 292.457C222.755 296.032 216.224 302.812 211.767 305.602L211.263 305.147L211.25 304.307C210.511 303.357 209.043 303.342 207.525 302.982C222.72 287.447 235.71 278.392 254.02 267.292Z" fill="#A34BED"/>
<path d="M295.66 277.757L295.015 275.862C297.275 274.557 321.735 275.207 325.195 276.692C326.37 277.197 328.065 277.602 329.29 277.512L329.69 277.072L328.045 276.287L328.005 275.527C328.985 274.482 329.61 273.832 330.47 272.657C337.88 273.597 347.65 285.727 353.585 285.972L354.69 285.492C363.69 294.362 372.745 303.227 381.685 312.152C383.47 313.937 389.96 320.322 391.01 321.737C392.635 326.447 404.315 334.182 405.015 338.042C403.64 338.787 400.59 338.882 398.77 339.227C390.58 340.792 382.3 344.672 376.725 350.957C370.99 352.617 365.945 344.007 361.975 342.842L359.565 341.407C358.06 340.962 357.235 340.272 355.93 341.322C344.42 350.612 326.355 358.182 316.13 368.587L314.65 368.242L314.25 368.992C316.115 372.417 320.985 374.602 321.9 378.442C318.665 375.807 311.125 367.752 307.7 364.382C294.52 351.312 281.47 338.117 268.54 324.797C261.33 317.472 253.34 307.592 244.47 303.127C246.255 297.612 256.105 291.647 260.71 288.482C269.98 282.112 281.4 277.602 292.165 274.427L295.66 277.757Z" fill="url(#paint7_linear_1_38)"/>
<path d="M295.66 277.757L295.015 275.862C297.275 274.557 321.735 275.207 325.195 276.692C326.37 277.197 328.065 277.602 329.29 277.512L329.69 277.072L328.045 276.287L328.005 275.527C328.985 274.482 329.61 273.832 330.47 272.657C337.88 273.597 347.65 285.727 353.585 285.972L354.69 285.492C363.69 294.362 372.745 303.227 381.685 312.152C383.47 313.937 389.96 320.322 391.01 321.737C392.635 326.447 404.315 334.182 405.015 338.042C403.64 338.787 400.59 338.882 398.77 339.227C390.58 340.792 382.3 344.672 376.725 350.957C370.99 352.617 365.945 344.007 361.975 342.842L359.565 341.407C346.985 329.852 334.735 317.947 322.825 305.702C312.59 295.052 307.43 287.882 295.66 277.757Z" fill="#601694"/>
<path d="M372.305 428.082C379.52 423.587 387.08 414.477 394.78 409.772C396.565 408.677 398.89 405.877 400.815 404.462C404.445 401.797 408.34 399.677 412.155 397.302C419.995 392.827 429.19 385.652 437.53 382.512C439.95 381.602 445.03 384.752 449.37 384.092C455.25 394.807 457.045 406.882 453.63 418.682C450.395 429.822 442.88 439.222 432.735 444.837C415.055 454.462 390.79 450.302 377.925 434.657L378.1 434.057C376.495 432.017 374.195 429.922 372.305 428.082Z" fill="#3A87F7"/>
<path d="M391.01 321.737C398.75 328.752 409.66 340.347 417.18 347.752C422.975 353.467 442.695 372.702 445.86 378.412C442.04 378.212 435 371.552 430.855 370.742C414.07 367.452 397.905 366.617 382.705 357.462C378.545 354.962 364.295 346.937 361.975 342.842C365.945 344.007 370.99 352.617 376.725 350.957C382.3 344.672 390.58 340.792 398.77 339.227C400.59 338.882 403.64 338.787 405.015 338.042C404.315 334.182 392.635 326.447 391.01 321.737Z" fill="#A34BED"/>
<path d="M20.8873 372.222C21.7618 370.867 29.4203 363.377 30.9903 361.807L52.9768 339.727C84.8618 307.322 116.932 275.097 149.185 243.062C148.372 244.802 147.36 246.087 147.465 247.682C161.6 263.507 178.401 276.137 193.795 290.667C197.92 294.557 201.799 297.612 206.6 300.672C206.79 301.972 206.729 301.952 206.468 303.262L207.525 302.982C209.043 303.342 210.511 303.357 211.25 304.307L211.263 305.147L211.767 305.602L212.447 306.107C202.361 314.282 184.81 332.747 175.21 342.482C156.383 361.567 136.723 380.532 118.038 399.632C110.591 407.312 103.091 414.937 95.5378 422.512C94.6078 423.442 89.4458 428.757 88.8753 429.142C78.7008 441.022 66.5313 449.607 50.4273 449.907C38.8568 450.227 27.6468 445.862 19.3358 437.807C11.0408 429.827 6.31185 418.837 6.21835 407.327C6.05185 393.272 11.2663 382.192 20.8873 372.222Z" fill="url(#paint8_linear_1_38)"/>
<path d="M20.8873 372.222C19.8433 375.512 13.4808 381.562 13.9003 383.572L14.7163 383.132C26.8178 386.737 60.0638 420.122 72.9043 429.377L74.3228 433.077C76.2508 433.232 77.9308 434.077 79.6608 434.882C79.8128 436.117 79.7988 435.517 79.7268 436.677C83.2603 433.972 85.1198 430.162 88.8753 429.142C78.7008 441.022 66.5313 449.607 50.4273 449.907C38.8568 450.227 27.6468 445.862 19.3358 437.807C11.0408 429.827 6.31185 418.837 6.21835 407.327C6.05185 393.272 11.2663 382.192 20.8873 372.222Z" fill="#F1237B"/>
<path d="M221.205 361.762C224.505 361.292 233.745 361.412 236.955 361.547C260.325 362.532 284.405 369.877 302.645 384.917C309.66 390.697 317.75 399.077 324.28 405.697C332.775 414.312 342.28 423.352 350.38 432.237C316.395 446.972 278.445 454.497 241.585 456.532C194.894 457.937 153.805 449.572 110.806 432.052C122.759 418.337 137.746 404.997 150.523 391.877C168.788 373.122 195.46 363.912 221.205 361.762Z" fill="#243243"/>
<path d="M105.381 106.174C104.508 108.352 102.99 109.643 102.478 111.376C107.108 120.386 116.796 125.525 122.544 132.256C126.954 137.42 161.961 170.046 161.685 172.94L158.878 175.605C156.346 178.009 153.437 181.985 151.236 184.831C154.243 182.652 156.137 179.632 159.001 178.75C150.817 188.492 135.345 202.121 126.128 211.903C122.425 215.833 105.746 233.172 101.974 236.172C98.2108 240.767 92.5799 245.602 88.4854 250.072C76.7849 262.842 62.5669 271.222 44.5614 269.157C32.8509 267.792 22.1829 261.772 14.9594 252.452C7.57936 243.037 4.96886 231.352 6.35786 219.681C8.26186 203.683 17.0769 194.996 27.9919 184.355C31.6314 180.806 36.5604 175.044 40.4684 171.991C45.3754 165.826 59.5623 152.084 65.8093 145.897C78.7493 133.08 92.2783 118.531 105.381 106.174Z" fill="#601694"/>
<path d="M105.381 106.174C104.508 108.352 102.99 109.643 102.478 111.376C107.108 120.386 116.796 125.525 122.544 132.256C126.954 137.42 161.961 170.046 161.685 172.94L158.878 175.605C156.346 178.009 153.437 181.985 151.236 184.831C154.243 182.652 156.137 179.632 159.001 178.75C150.817 188.492 135.345 202.121 126.128 211.903C122.425 215.833 105.746 233.172 101.974 236.172C101.286 233.007 114.46 224.157 116.484 219.984C115.84 219.161 116.173 219.423 115.451 218.978C108.826 214.897 103.934 208.483 98.7114 202.937C95.3959 199.369 91.2484 196.086 87.9984 192.51C80.4169 184.169 72.9514 176.131 64.1189 169.079C60.6514 166.31 57.1784 162.474 54.1184 159.167C51.2669 162.095 43.5124 170.359 40.4684 171.991C45.3754 165.826 59.5624 152.084 65.8094 145.897C78.7494 133.08 92.2784 118.531 105.381 106.174Z" fill="url(#paint9_linear_1_38)"/>
<defs>
<linearGradient id="paint0_linear_1_38" x1="430.47" y1="264.597" x2="362.78" y2="167.707" gradientUnits="userSpaceOnUse">
<stop stop-color="#12FFD3"/>
<stop offset="1" stop-color="#00B5FD"/>
</linearGradient>
<linearGradient id="paint1_linear_1_38" x1="332.52" y1="103.373" x2="357.375" y2="140.449" gradientUnits="userSpaceOnUse">
<stop stop-color="#6221BE"/>
<stop offset="1" stop-color="#4162E6"/>
</linearGradient>
<linearGradient id="paint2_linear_1_38" x1="200.29" y1="73.0098" x2="122.794" y2="155.79" gradientUnits="userSpaceOnUse">
<stop stop-color="#00CED9"/>
<stop offset="1" stop-color="#4965FF"/>
</linearGradient>
<linearGradient id="paint3_linear_1_38" x1="220.89" y1="54.2878" x2="180.9" y2="90.5473" gradientUnits="userSpaceOnUse">
<stop stop-color="#047A63"/>
<stop offset="1" stop-color="#019CBD"/>
</linearGradient>
<linearGradient id="paint4_linear_1_38" x1="353.595" y1="339.242" x2="408.16" y2="413.007" gradientUnits="userSpaceOnUse">
<stop stop-color="#7434F6"/>
<stop offset="1" stop-color="#4686FC"/>
</linearGradient>
<linearGradient id="paint5_linear_1_38" x1="289.275" y1="219.193" x2="252.765" y2="258.762" gradientUnits="userSpaceOnUse">
<stop stop-color="#37AAF4"/>
<stop offset="1" stop-color="#606EFA"/>
</linearGradient>
<linearGradient id="paint6_linear_1_38" x1="180.741" y1="279.512" x2="226.525" y2="229.182" gradientUnits="userSpaceOnUse">
<stop stop-color="#7E25E7"/>
<stop offset="1" stop-color="#6069FF"/>
</linearGradient>
<linearGradient id="paint7_linear_1_38" x1="277.51" y1="279.102" x2="325.12" y2="363.392" gradientUnits="userSpaceOnUse">
<stop stop-color="#580A82"/>
<stop offset="1" stop-color="#7543E5"/>
</linearGradient>
<linearGradient id="paint8_linear_1_38" x1="43.5423" y1="413.082" x2="180.67" y2="273.347" gradientUnits="userSpaceOnUse">
<stop stop-color="#E91564"/>
<stop offset="1" stop-color="#7822D3"/>
</linearGradient>
<linearGradient id="paint9_linear_1_38" x1="84.6174" y1="190.608" x2="132.647" y2="140.541" gradientUnits="userSpaceOnUse">
<stop stop-color="#5D28C0"/>
<stop offset="1" stop-color="#4368FE"/>
</linearGradient>
</defs>
</svg>
